PathFileType	4	(X/Y/Z)	D:\TRACE\v60_Jaco2_6-2-23\JustBodyDRS_Motion2_3-platform.trc
DataRate	CameraRate	NumFrames	NumMarkers	Units	OrigDataRate	OrigDataStartFrame	OrigNumFrames
100.00	100.00	      50	5	mm	100.00	1	      6834
Frame#	Time	Left_Front			Right_Front			Left_Aft			Right_Aft			Post			
		X1	Y1	Z1	X2	Y2	Z2	X3	Y3	Z3	X4	Y4	Z4	X5	Y5	Z5	

1	0.000	-800.57971	8.82404	-639.06439	769.47546	9.99922	-644.11615	-708.83984	7.84089	496.12448	733.20386	7.03296	505.85822	-14.43749	1307.89661	-962.19153	
2	0.010	-800.57410	8.85428	-639.09009	769.40649	10.04064	-644.21576	-708.81000	7.82843	496.10278	733.25146	7.04643	505.82764	-14.38720	1307.88232	-962.22760	
3	0.020	-800.58600	8.85008	-639.10590	769.52234	10.02603	-644.15179	-708.76630	7.82983	496.13748	733.28009	7.06898	505.82211	-14.42873	1307.89880	-962.19226	
4	0.030	-800.57227	8.80874	-639.12372	769.39258	10.04325	-644.21869	-708.74298	7.78224	496.13586	733.23688	7.05747	505.86026	-14.45630	1307.90845	-962.20038	
5	0.040	-800.61505	8.82958	-639.05652	769.36725	10.04953	-644.19025	-708.76160	7.79726	496.12402	733.26117	7.03502	505.84897	-14.39769	1307.85339	-962.20612	
6	0.050	-800.59900	8.81284	-639.06293	769.56067	10.02073	-644.13000	-708.76074	7.78360	496.08646	733.24805	7.03197	505.84897	-14.44858	1307.85889	-962.20770	
7	0.060	-800.58112	8.84285	-639.12958	769.39661	10.04950	-644.21307	-708.81689	7.82897	496.10248	733.24622	7.05258	505.85132	-14.45260	1307.88794	-962.20605	
8	0.070	-800.56348	8.85868	-639.12292	769.40332	10.04069	-644.22430	-708.82159	7.85014	496.08423	733.26636	7.06158	505.83542	-14.38791	1307.87268	-962.19775	
9	0.080	-800.59503	8.85571	-639.09576	769.48431	9.98865	-644.14453	-708.80463	7.83430	496.15369	733.22363	7.06634	505.85587	-14.45424	1307.89685	-962.17499	
10	0.090	-800.58740	8.85089	-639.08594	769.48633	10.03694	-644.20624	-708.76965	7.81866	496.14041	733.26135	7.04652	505.83472	-14.41417	1307.87402	-962.21918	
11	0.100	-800.59485	8.82104	-639.09265	769.39008	10.03998	-644.21716	-708.77539	7.83412	496.16980	733.29932	7.07954	505.83105	-14.47038	1307.86926	-962.18579	
12	0.110	-800.57452	8.86111	-639.09991	769.43219	10.04914	-644.18494	-708.78180	7.78335	496.11057	733.33130	7.07595	505.83704	-14.39816	1307.85510	-962.20563	
13	0.120	-800.59625	8.85269	-639.11597	769.54169	10.02072	-644.15314	-708.76300	7.81483	496.14432	733.35980	7.07847	505.82193	-14.38221	1307.90808	-962.18372	
14	0.130	-800.58728	8.87790	-639.04102	769.54785	10.01070	-644.13867	-708.77661	7.80424	496.10770	733.24738	7.05896	505.84442	-14.43079	1307.90088	-962.21008	
15	0.140	-800.63721	8.82030	-639.07312	769.48175	10.03632	-644.16425	-708.78418	7.78676	496.13510	733.23785	7.02481	505.83954	-14.37440	1307.87073	-962.19275	
16	0.150	-800.59344	8.74146	-639.08484	769.36273	10.01953	-644.19720	-708.80505	7.81674	496.10941	733.18958	7.03450	505.90140	-14.43473	1307.86902	-962.20789	
17	0.160	-800.55768	8.82076	-639.09412	769.48114	9.99286	-644.15442	-708.79132	7.82725	496.12616	733.21045	7.04304	505.87564	-14.42591	1307.84558	-962.19397	
18	0.170	-800.58472	8.84666	-639.10834	769.55469	10.03674	-644.14380	-708.75476	7.79452	496.09164	733.32178	7.07795	505.82449	-14.36637	1307.88916	-962.19165	
19	0.180	-800.57776	8.82591	-639.08960	769.41504	10.05114	-644.21484	-708.78973	7.81938	496.12320	733.30707	7.06747	505.83926	-14.39400	1307.89294	-962.18042	
20	0.190	-800.60632	8.84319	-639.07947	769.55164	10.05056	-644.13983	-708.77997	7.82932	496.11307	733.29077	7.07730	505.84897	-14.42117	1307.87134	-962.20734	
21	0.200	-800.59320	8.80256	-639.06042	769.53497	10.03545	-644.13477	-708.75940	7.79848	496.13809	733.25708	7.04460	505.84366	-14.36779	1307.84497	-962.18213	
22	0.210	-800.62823	8.83707	-639.05688	769.53772	10.03430	-644.12689	-708.80225	7.84080	496.12158	733.23505	7.03833	505.85968	-14.41713	1307.82263	-962.19159	
23	0.220	-800.57104	8.83062	-639.11523	769.41382	10.03519	-644.19604	-708.78717	7.84808	496.11469	733.22278	7.07251	505.85312	-14.36103	1307.83826	-962.17743	
24	0.230	-800.59094	8.84489	-639.08484	769.43573	10.05014	-644.17108	-708.82983	7.87203	496.08740	733.23767	7.04972	505.84073	-14.39472	1307.83582	-962.19830	
25	0.240	-800.56323	8.83814	-639.08807	769.51776	10.00790	-644.15417	-708.78394	7.81968	496.11752	733.24579	7.03971	505.85336	-14.36124	1307.86255	-962.19873	
26	0.250	-800.64270	8.79889	-639.04706	769.48956	9.99396	-644.14813	-708.74646	7.78509	496.12585	733.19495	7.03331	505.87131	-14.37609	1307.83386	-962.21777	
27	0.260	-800.61847	8.80202	-639.07257	769.54181	10.00795	-644.11389	-708.74237	7.76317	496.15173	733.19421	7.02426	505.86957	-14.40589	1307.82361	-962.21960	
28	0.270	-800.59076	8.84372	-639.04596	769.37433	10.02954	-644.17206	-708.78748	7.78241	496.15118	733.25354	7.06869	505.85147	-14.38299	1307.82422	-962.20819	
29	0.280	-800.55664	8.83659	-639.12402	769.53656	10.02543	-644.15765	-708.79095	7.80541	496.12347	733.28632	7.06860	505.83963	-14.36831	1307.85974	-962.21857	
30	0.290	-800.56287	8.85979	-639.08661	769.35205	10.00804	-644.24963	-708.81812	7.86293	496.13489	733.28644	7.05747	505.83414	-14.35719	1307.86023	-962.19763	
31	0.300	-800.61072	8.83750	-639.06122	769.50372	10.00486	-644.13385	-708.78381	7.79628	496.10901	733.22186	7.06248	505.83603	-14.36816	1307.84741	-962.20770	
32	0.310	-800.66345	8.80612	-639.08539	769.35638	10.01676	-644.19995	-708.81268	7.80711	496.13071	733.14899	7.01464	505.89261	-14.32101	1307.82312	-962.18933	
33	0.320	-800.61865	8.83003	-639.06873	769.41461	10.01210	-644.16858	-708.77710	7.78771	496.10068	733.22906	7.05422	505.84866	-14.28016	1307.82397	-962.20215	
34	0.330	-800.60565	8.86275	-639.11053	769.37213	10.05907	-644.18768	-708.79614	7.81417	496.13882	733.27032	7.07482	505.83783	-14.32969	1307.81982	-962.20361	
35	0.340	-800.58423	8.84356	-639.10120	769.58771	10.00614	-644.15588	-708.75403	7.81939	496.12808	733.32642	7.09735	505.83200	-14.32832	1307.81812	-962.21503	
36	0.350	-800.62482	8.84789	-639.07837	769.52234	10.01440	-644.15131	-708.78369	7.79280	496.13571	733.28772	7.05365	505.86182	-14.34615	1307.80579	-962.17682	
37	0.360	-800.62872	8.79699	-639.06396	769.49762	10.00090	-644.20264	-708.72546	7.76949	496.15378	733.16400	7.01225	505.86609	-14.40446	1307.80334	-962.20331	
38	0.370	-800.62445	8.84739	-639.03595	769.38312	10.01327	-644.18707	-708.76569	7.75719	496.14148	733.23737	7.01968	505.87668	-14.39059	1307.79163	-962.17181	
39	0.380	-800.56769	8.84250	-639.09583	769.53864	9.99652	-644.11896	-708.78369	7.80814	496.12048	733.23065	7.05983	505.84967	-14.33600	1307.84180	-962.19550	
40	0.390	-800.57495	8.84662	-639.11682	769.54523	10.02050	-644.14612	-708.80261	7.87487	496.15381	733.27747	7.08463	505.84439	-14.42593	1307.84485	-962.23218	
41	0.400	-800.56281	8.80118	-639.08514	769.40424	10.04732	-644.19922	-708.75836	7.80957	496.09573	733.34326	7.07114	505.81790	-14.36360	1307.85620	-962.21796	
42	0.410	-800.60498	8.87068	-639.11127	769.50848	10.00799	-644.15521	-708.77972	7.80800	496.12558	733.23865	7.05892	505.85144	-14.50849	1307.87878	-962.21198	
43	0.420	-800.59875	8.87127	-639.03149	769.38666	10.02404	-644.19946	-708.75769	7.78396	496.14868	733.19171	7.02569	505.87912	-14.50685	1307.84570	-962.19836	
44	0.430	-800.59131	8.86666	-639.08423	769.49646	9.99189	-644.14978	-708.79248	7.80017	496.11987	733.24176	7.06097	505.85858	-14.45166	1307.90796	-962.20886	
45	0.440	-800.58521	8.86359	-639.14307	769.52631	10.01048	-644.16736	-708.81091	7.86063	496.09521	733.28839	7.07742	505.84323	-14.49232	1307.91943	-962.20813	
46	0.450	-800.58209	8.87834	-639.07794	769.53503	10.03401	-644.10907	-708.76532	7.85759	496.13449	733.31104	7.07732	505.83673	-14.38844	1307.90527	-962.20380	
47	0.460	-800.58893	8.82477	-639.09918	769.33252	10.03641	-644.20306	-708.78760	7.82790	496.11511	733.24756	7.06163	505.85059	-14.45028	1307.88708	-962.21692	
48	0.470	-800.66302	8.82905	-639.10455	769.50555	9.99784	-644.16498	-708.78790	7.81753	496.12656	733.18280	7.03970	505.86920	-14.44413	1307.85400	-962.19427	
49	0.480	-800.62872	8.83696	-639.05939	769.49756	9.99808	-644.16669	-708.77173	7.75641	496.13470	733.19153	7.03463	505.87268	-14.45133	1307.86316	-962.20636	
50	0.490	-800.58826	8.85913	-639.01868	769.41998	10.03616	-644.17456	-708.75226	7.78749	496.14001	733.23468	7.05910	505.86417	-14.48905	1307.85461	-962.21991	
